<?xml version="1.0" encoding="UTF-8" standalone="no"?>
<svg
   width="1100"
   height="1100"
   viewBox="0 0 291.04167 291.041"
   version="1.1"
   id="svg289"
   xmlns="http://www.w3.org/2000/svg"
   xmlns:svg="http://www.w3.org/2000/svg"
   xmlns:rdf="http://www.w3.org/1999/02/22-rdf-syntax-ns#"
   xmlns:cc="http://creativecommons.org/ns#"
   xmlns:dc="http://purl.org/dc/elements/1.1/">
  <defs
     id="defs283">
    <clipPath
       clipPathUnits="userSpaceOnUse"
       id="clipPath32">
      <path
         d="M 0,0 H 792 V 612 H 0 Z"
         id="path30" />
    </clipPath>
    <clipPath
       clipPathUnits="userSpaceOnUse"
       id="clipPath60">
      <path
         d="M 0,0 H 792 V 612 H 0 Z"
         id="path58" />
    </clipPath>
    <clipPath
       clipPathUnits="userSpaceOnUse"
       id="clipPath82">
      <path
         d="M 0,0 H 792 V 612 H 0 Z"
         id="path80" />
    </clipPath>
    <clipPath
       clipPathUnits="userSpaceOnUse"
       id="clipPath106">
      <path
         d="M 0,0 H 792 V 612 H 0 Z"
         id="path104" />
    </clipPath>
    <clipPath
       clipPathUnits="userSpaceOnUse"
       id="clipPath126">
      <path
         d="M 0,0 H 792 V 612 H 0 Z"
         id="path124" />
    </clipPath>
    <clipPath
       clipPathUnits="userSpaceOnUse"
       id="clipPath146">
      <path
         d="M 0,0 H 792 V 612 H 0 Z"
         id="path144" />
    </clipPath>
    <clipPath
       clipPathUnits="userSpaceOnUse"
       id="clipPath166">
      <path
         d="M 0,0 H 792 V 612 H 0 Z"
         id="path164" />
    </clipPath>
  </defs>
  <metadata
     id="metadata286">
    <rdf:RDF>
      <cc:Work
         rdf:about="">
        <dc:format>image/svg+xml</dc:format>
        <dc:type
           rdf:resource="http://purl.org/dc/dcmitype/StillImage" />
      </cc:Work>
    </rdf:RDF>
  </metadata>
  <g
     id="layer1"
     transform="translate(2.4795578,53.153574)">
    <path
       d="m 423.34881,92.483688 c 13.18794,13.126842 19.77814,29.140212 19.77814,48.055382 0,18.77771 -6.5902,34.69945 -19.77814,47.75757 -13.18782,13.0581 -29.30051,19.58715 -48.3455,19.58715 -19.03743,0 -35.14996,-6.52905 -48.33779,-19.58715 -13.18039,-13.05812 -19.77815,-28.97986 -19.77815,-47.75757 0,-18.91517 6.59776,-34.92854 19.77815,-48.055382 13.18783,-13.119194 29.30036,-19.678791 48.33779,-19.678791 19.04499,0 35.15768,6.559597 48.3455,19.678791 m -18.72418,78.539562 c 8.04863,-8.10213 12.06533,-18.26607 12.06533,-30.48418 0,-12.22576 -4.0167,-22.45079 -12.06533,-30.68276 -8.03344,-8.23959 -17.90714,-12.355557 -29.62132,-12.355557 -11.69881,0 -21.58027,4.115967 -29.61364,12.355557 -8.04105,8.23197 -12.06537,18.457 -12.06537,30.68276 0,12.21811 4.02432,22.38205 12.06537,30.48418 8.03337,8.10979 17.91483,12.15705 29.61364,12.15705 11.71418,0 21.58788,-4.04726 29.62132,-12.15705"
       style="fill:#43b0e8;fill-opacity:1;fill-rule:nonzero;stroke:none;stroke-width:7.63631"
       id="path36" />
    <path
       d="m 554.75085,120.37079 c 9.45378,9.7134 14.18059,21.90098 14.18059,36.57035 0,14.66174 -4.6963,26.81876 -14.08894,36.47107 -9.38509,9.64469 -20.45762,14.47083 -33.18747,14.47083 -12.60754,0 -23.22201,-3.47454 -31.84341,-10.42356 v 40.33504 H 464.34443 V 108.69486 h 25.46719 v 7.72032 c 8.49151,-7.07888 19.10608,-10.61449 31.84341,-10.61449 12.60754,0 23.64209,4.85671 33.09582,14.5701 m -18.1363,57.50914 c 5.07819,-5.2156 7.62096,-12.19521 7.62096,-20.93879 0,-8.75123 -2.54277,-15.76138 -7.62096,-21.03807 -5.0858,-5.27668 -11.55367,-7.91123 -19.40386,-7.91123 -7.20114,0 -13.56979,2.70327 -19.0984,8.10977 -5.53641,5.39888 -8.30067,12.34794 -8.30067,20.83953 0,8.48396 2.76426,15.40247 8.30067,20.74024 5.52861,5.3378 11.89726,8.01052 19.0984,8.01052 7.85019,0 14.31806,-2.60399 19.40386,-7.81197"
       style="fill:#43b0e8;fill-opacity:1;fill-rule:nonzero;stroke:none;stroke-width:7.63631"
       id="path40" />
    <path
       d="m 679.10984,163.6924 h -73.3315 c 1.29033,6.81925 4.14638,12.24867 8.59072,16.30356 4.43669,4.05488 9.6141,6.08613 15.53234,6.08613 10.93518,0 18.91509,-4.25343 23.92453,-12.74502 l 22.77157,4.82616 c -4.11603,9.78213 -10.22511,17.17408 -18.32723,22.19115 -8.10977,5.02471 -17.5635,7.52941 -28.36887,7.52941 -13.89047,0 -25.597,-4.75743 -35.11949,-14.2799 -9.52233,-9.5225 -14.27986,-21.74063 -14.27986,-36.66201 0,-14.929 4.78799,-27.17767 14.37158,-36.76124 9.59121,-9.59123 21.38934,-14.37919 35.40958,-14.37919 13.1269,0 24.41328,4.59706 33.87469,13.79118 9.45381,9.20178 14.44032,21.00753 14.95194,35.41727 z M 615.5222,132.6202 c -4.56653,3.09271 -7.55231,7.46833 -8.96503,13.12684 h 46.49749 c -1.54244,-5.91816 -4.36793,-10.35484 -8.48397,-13.31774 -4.11591,-2.95525 -8.88106,-4.43671 -14.28748,-4.43671 -5.2691,0 -10.19448,1.54252 -14.76101,4.62761"
       style="fill:#43b0e8;fill-opacity:1;fill-rule:nonzero;stroke:none;stroke-width:7.63631"
       id="path44" />
    <path
       d="m 782.14742,117.09021 c 7.07888,7.52179 10.6145,17.26574 10.6145,29.23184 v 58.66987 h -25.47476 v -53.26335 c 0,-6.81925 -1.76399,-12.28683 -5.3073,-16.40282 -3.53558,-4.11598 -8.26238,-6.17779 -14.18056,-6.17779 -15.95234,0 -23.93231,11.06504 -23.93231,33.1951 v 42.64886 h -25.46703 v -96.29403 h 25.46703 v 8.68251 c 7.72033,-7.72033 17.82329,-11.5843 30.30097,-11.5843 11.57664,0 20.90819,3.7647 27.97946,11.29411"
       style="fill:#43b0e8;fill-opacity:1;fill-rule:nonzero;stroke:none;stroke-width:7.63631"
       id="path48" />
    <path
       d="m 949.82957,204.98885 h -28.17052 l -25.08526,-87.22208 -25.28373,87.22208 H 843.31044 L 805.67869,75.698287 h 27.3991 l 24.70353,89.154053 26.05506,-89.154053 h 25.27618 l 26.0552,89.154053 24.69593,-89.154053 h 27.59752 z"
       style="fill:#43b0e8;fill-opacity:1;fill-rule:nonzero;stroke:none;stroke-width:7.63631"
       id="path52" />
    <path
       d="m 1066.7567,108.11831 -1.3512,24.50496 h -5.598 c -22.9014,0 -34.348,13.76829 -34.348,41.29723 v 31.06456 h -25.47457 v -96.28639 h 25.47457 v 17.5559 c 8.7511,-12.60756 20.2663,-18.90754 34.5464,-18.90754 2.9558,0 5.2093,0.25192 6.7508,0.77126"
       style="fill:#43b0e8;fill-opacity:1;fill-rule:nonzero;stroke:none;stroke-width:7.63631"
       id="path64" />
    <path
       d="m 1154.7419,200.74308 c -8.8734,4.76506 -17.2356,7.13996 -25.0845,7.13996 -11.8365,0 -21.0996,-3.18433 -27.789,-9.55304 -6.689,-6.36867 -10.0345,-15.98282 -10.0345,-28.85002 v -39.94561 h -20.6479 v -20.83951 h 20.6479 V 79.554658 h 25.475 v 29.140202 h 31.4534 v 20.83951 h -31.4534 V 167.548 c 0,11.06502 4.6974,16.60136 14.0811,16.60136 4.895,0 10.2329,-1.55009 16.0219,-4.63525 z"
       style="fill:#43b0e8;fill-opacity:1;fill-rule:nonzero;stroke:none;stroke-width:7.63631"
       id="path68" />
    <path
       d="m 549.37025,251.41466 h -7.4455 l -4.71159,-17.41081 -4.74976,17.41081 h -7.40722 l -8.03346,-28.17803 h 7.1094 l 4.92546,17.74682 4.83383,-17.74682 h 6.60543 l 4.83371,17.74682 4.92545,-17.74682 h 7.14763 z"
       style="fill:#072342;fill-opacity:1;fill-rule:nonzero;stroke:none;stroke-width:7.63631"
       id="path72" />
    <path
       d="m 568.51749,251.41161 h 6.94137 v -28.17803 h -6.94137 z"
       style="fill:#072342;fill-opacity:1;fill-rule:nonzero;stroke:none;stroke-width:7.63631"
       id="path74" />
    <path
       d="m 606.20678,251.41466 -8.49944,-9.67521 h -2.01587 v 9.67521 h -6.9415 v -28.17803 h 14.25711 c 3.05456,0 5.51351,0.84766 7.36139,2.5429 1.85574,1.69533 2.7796,3.91742 2.7796,6.6665 0,2.29854 -0.66427,4.23818 -1.97772,5.82651 -1.32109,1.58083 -3.12332,2.62691 -5.4295,3.13089 l 8.83518,10.01123 z M 602.251,235.93583 c 1.23714,0 2.22221,-0.31299 2.97052,-0.92409 0.74088,-0.61864 1.11506,-1.44337 1.11506,-2.48178 0,-1.01565 -0.37434,-1.82499 -1.11506,-2.44363 -0.74823,-0.61085 -1.73338,-0.92407 -2.97052,-0.92407 h -6.5596 v 6.7734 z"
       style="fill:#072342;fill-opacity:1;fill-rule:nonzero;stroke:none;stroke-width:7.63631"
       id="path86" />
    <path
       d="m 647.68401,251.41466 h -21.95452 v -28.17803 h 21.8247 v 5.9716 h -14.88325 v 5.29961 h 13.66897 v 5.63561 h -13.66897 v 5.29961 h 15.01307 z"
       style="fill:#072342;fill-opacity:1;fill-rule:nonzero;stroke:none;stroke-width:7.63631"
       id="path90" />
    <path
       d="m 681.25322,251.41466 h -20.8241 v -28.17803 h 6.94893 v 22.12242 h 13.87517 z"
       style="fill:#072342;fill-opacity:1;fill-rule:nonzero;stroke:none;stroke-width:7.63631"
       id="path94" />
    <path
       d="m 715.49761,251.41466 h -21.95443 v -28.17803 h 21.82464 v 5.9716 h -14.88319 v 5.29961 h 13.66893 v 5.63561 h -13.66893 v 5.29961 h 15.01298 z"
       style="fill:#072342;fill-opacity:1;fill-rule:nonzero;stroke:none;stroke-width:7.63631"
       id="path98" />
    <path
       d="m 747.04931,224.76618 c 2.07728,1.44337 3.37542,3.44399 3.90981,5.99452 l -6.81151,1.38991 c -0.25172,-1.26003 -0.84773,-2.23745 -1.77152,-2.92472 -0.91637,-0.68726 -1.97786,-1.03101 -3.15382,-1.03101 -1.12267,0 -2.03126,0.27493 -2.73391,0.81715 -0.70256,0.54982 -1.05359,1.22951 -1.05359,2.04644 0,1.2295 0.7636,2.01592 2.27561,2.35197 l 5.84172,1.3057 c 5.16207,1.14553 7.74326,3.8869 7.74326,8.20143 0,2.88653 -1.10723,5.1316 -3.32183,6.7276 -2.21454,1.59597 -4.97879,2.39779 -8.28536,2.39779 -3.28358,0 -6.06339,-0.74831 -8.3465,-2.24506 -2.29096,-1.50441 -3.61199,-3.59672 -3.97852,-6.29233 l 7.14764,-1.38211 c 0.67955,2.77197 2.52757,4.16179 5.55147,4.16179 1.29057,0 2.31392,-0.26728 3.05448,-0.80177 0.74093,-0.53445 1.11515,-1.23708 1.11515,-2.0999 0,-0.67191 -0.19059,-1.20657 -0.57293,-1.60356 -0.37432,-0.3894 -1.05375,-0.68727 -2.0387,-0.87819 l -5.88765,-1.26761 c -5.04762,-1.14552 -7.56752,-3.86397 -7.56752,-8.15558 0,-2.72617 1.02316,-4.87961 3.06971,-6.48324 2.04663,-1.59599 4.7345,-2.39017 8.07166,-2.39017 3.09271,0 5.666,0.71779 7.7431,2.16116"
       style="fill:#072342;fill-opacity:1;fill-rule:nonzero;stroke:none;stroke-width:7.63631"
       id="path110" />
    <path
       d="m 781.96497,224.76618 c 2.07717,1.44337 3.38286,3.44399 3.91738,5.99452 l -6.81924,1.38991 c -0.25213,-1.26003 -0.84006,-2.23745 -1.76394,-2.92472 -0.92411,-0.68726 -1.97791,-1.03101 -3.15381,-1.03101 -1.12248,0 -2.03885,0.27493 -2.7339,0.81715 -0.70238,0.54982 -1.05356,1.22951 -1.05356,2.04644 0,1.2295 0.75606,2.01592 2.26792,2.35197 l 5.84948,1.3057 c 5.15435,1.14553 7.73552,3.8869 7.73552,8.20143 0,2.88653 -1.09973,5.1316 -3.32182,6.7276 -2.21444,1.59597 -4.97882,2.39779 -8.28537,2.39779 -3.27596,0 -6.06335,-0.74831 -8.34648,-2.24506 -2.28332,-1.50441 -3.61198,-3.59672 -3.97854,-6.29233 l 7.1553,-1.38211 c 0.67171,2.77197 2.5199,4.16179 5.55155,4.16179 1.29052,0 2.30613,-0.26728 3.04678,-0.80177 0.74842,-0.53445 1.11507,-1.23708 1.11507,-2.0999 0,-0.67191 -0.19056,-1.20657 -0.56512,-1.60356 -0.38191,-0.3894 -1.06166,-0.68727 -2.03887,-0.87819 l -5.88767,-1.26761 c -5.05518,-1.14552 -7.5752,-3.86397 -7.5752,-8.15558 0,-2.72617 1.02322,-4.87961 3.06972,-6.48324 2.04668,-1.59599 4.74219,-2.39017 8.07175,-2.39017 3.09263,0 5.67376,0.71779 7.74317,2.16116"
       style="fill:#072342;fill-opacity:1;fill-rule:nonzero;stroke:none;stroke-width:7.63631"
       id="path114" />
    <path
       d="m 823.86762,235.26303 h 13.20323 v 6.05562 h -13.20323 v 10.09522 h -6.94151 v -28.17804 h 21.78646 v 6.09379 h -14.84495 z"
       style="fill:#072342;fill-opacity:1;fill-rule:nonzero;stroke:none;stroke-width:7.63631"
       id="path118" />
    <path
       d="m 867.95601,251.41466 -8.49927,-9.67521 h -2.01596 v 9.67521 h -6.94128 v -28.17803 h 14.25697 c 3.05451,0 5.5058,0.84766 7.36139,2.5429 1.85565,1.69533 2.77959,3.91742 2.77959,6.6665 0,2.29854 -0.6643,4.23818 -1.98533,5.82651 -1.31354,1.58083 -3.12321,2.62691 -5.42188,3.13089 l 8.83516,10.01123 z m -3.9633,-15.47883 c 1.24461,0 2.22986,-0.31299 2.97053,-0.92409 0.74076,-0.61864 1.11489,-1.44337 1.11489,-2.48178 0,-1.01565 -0.37446,-1.82499 -1.11489,-2.44363 -0.74067,-0.61085 -1.72589,-0.92407 -2.97053,-0.92407 h -6.55197 v 6.7734 z"
       style="fill:#072342;fill-opacity:1;fill-rule:nonzero;stroke:none;stroke-width:7.63631"
       id="path130" />
    <path
       d="m 909.43334,251.41466 h -21.95446 v -28.17803 h 21.8246 v 5.9716 h -14.88307 v 5.29961 h 13.66138 v 5.63561 h -13.66138 v 5.29961 h 15.01293 z"
       style="fill:#072342;fill-opacity:1;fill-rule:nonzero;stroke:none;stroke-width:7.63631"
       id="path134" />
    <path
       d="m 944.13963,251.41466 h -21.95444 v -28.17803 h 21.82466 v 5.9716 h -14.89088 v 5.29961 h 13.67665 v 5.63561 h -13.67665 v 5.29961 h 15.02066 z"
       style="fill:#072342;fill-opacity:1;fill-rule:nonzero;stroke:none;stroke-width:7.63631"
       id="path138" />
    <path
       d="m 968.03301,223.23281 c 4.62751,0 8.35413,1.29812 11.18726,3.89452 2.83309,2.5887 4.24573,5.9945 4.24573,10.19448 0,4.20764 -1.41255,7.6058 -4.24573,10.20214 -2.83313,2.59635 -6.55975,3.88688 -11.18726,3.88688 h -11.1491 v -28.17802 z m -0.25177,22.16824 c 2.63457,0 4.74226,-0.74074 6.33056,-2.2069 1.58081,-1.4739 2.37486,-3.4287 2.37486,-5.87234 0,-2.43598 -0.79418,-4.39088 -2.37486,-5.86468 -1.5883,-1.4739 -3.69599,-2.2069 -6.33056,-2.2069 h -3.95555 v 16.15082 z"
       style="fill:#072342;fill-opacity:1;fill-rule:nonzero;stroke:none;stroke-width:7.63631"
       id="path150" />
    <path
       d="m 1020.5105,226.89137 c 2.9017,2.86362 4.3523,6.35342 4.3523,10.47703 0,4.09307 -1.4507,7.55996 -4.3523,10.40831 -2.9019,2.84834 -6.4528,4.26871 -10.6604,4.26871 -4.2076,0 -7.7585,-1.42044 -10.66024,-4.26871 -2.9017,-2.84835 -4.35265,-6.31524 -4.35265,-10.40831 0,-4.12361 1.45095,-7.61341 4.35265,-10.47703 2.90174,-2.85599 6.45264,-4.29162 10.66024,-4.29162 4.2076,0 7.7585,1.43558 10.6604,4.29162 m -4.895,16.42573 c 1.5426,-1.58083 2.3139,-3.56616 2.3139,-5.9487 0,-2.41309 -0.7713,-4.42142 -2.3139,-6.01743 -1.5501,-1.59598 -3.4669,-2.3978 -5.7654,-2.3978 -2.2985,0 -4.2228,0.80178 -5.7577,2.3978 -1.5502,1.59598 -2.3215,3.60434 -2.3215,6.01743 0,2.38254 0.7712,4.36798 2.3215,5.9487 1.5349,1.5884 3.4592,2.38254 5.7577,2.38254 2.2985,0 4.2153,-0.7942 5.7654,-2.38254"
       style="fill:#072342;fill-opacity:1;fill-rule:nonzero;stroke:none;stroke-width:7.63631"
       id="path154" />
    <path
       d="m 1069.7109,251.41466 h -6.7281 v -14.05083 l -7.3617,14.05083 h -4.2907 l -7.4011,-14.13484 v 14.13484 h -6.7334 v -28.17803 h 6.8097 l 9.4693,17.45663 9.4616,-17.45663 h 6.7744 z"
       style="fill:#072342;fill-opacity:1;fill-rule:nonzero;stroke:none;stroke-width:7.63631"
       id="path158" />
    <g
       id="g168"
       transform="matrix(7.636319,0,0,-7.6363222,143.49685,98.667595)"
       style="fill:#43b0e8;fill-opacity:1">
      <path
         d="m 0,0 c -1.424,0 -2.583,-1.159 -2.583,-2.583 0,-1.424 1.159,-2.583 2.583,-2.583 1.424,0 2.583,1.159 2.583,2.583 C 2.583,-1.159 1.424,0 0,0"
         style="fill:#43b0e8;fill-opacity:1;fill-rule:nonzero;stroke:none"
         id="path170" />
    </g>
    <g
       id="g172"
       transform="matrix(7.636319,0,0,-7.6363222,22.535292,-2.5686713)"
       style="fill:#43b0e8;fill-opacity:1">
      <path
         d="m 0,0 2.685,-2.685 c 3.37,3.371 8.023,5.458 13.155,5.458 5.132,0 9.785,-2.087 13.156,-5.458 L 31.681,0 C 27.623,4.058 22.019,6.572 15.84,6.572 9.662,6.572 4.059,4.058 0,0"
         style="fill:#43b0e8;fill-opacity:1;fill-rule:nonzero;stroke:none"
         id="path174" />
    </g>
    <g
       id="g176"
       transform="matrix(7.636319,0,0,-7.6363222,59.441622,34.334627)"
       style="fill:#43b0e8;fill-opacity:1">
      <path
         d="m 0,0 2.685,-2.685 c 2.132,2.132 5.076,3.453 8.322,3.453 3.247,0 6.191,-1.321 8.323,-3.453 L 22.015,0 C 19.195,2.82 15.301,4.567 11.007,4.567 6.713,4.567 2.82,2.82 0,0"
         style="fill:#43b0e8;fill-opacity:1;fill-rule:nonzero;stroke:none"
         id="path178" />
    </g>
    <g
       id="g180"
       transform="matrix(7.636319,0,0,-7.6363222,96.344126,71.238677)"
       style="fill:#43b0e8;fill-opacity:1">
      <path
         d="m 0,0 2.685,-2.685 c 0.894,0.894 2.128,1.448 3.49,1.448 1.362,0 2.596,-0.554 3.49,-1.448 L 12.35,0 C 10.768,1.582 8.583,2.562 6.175,2.562 3.766,2.562 1.582,1.582 0,0"
         style="fill:#43b0e8;fill-opacity:1;fill-rule:nonzero;stroke:none"
         id="path182" />
    </g>
    <g
       id="g184"
       transform="matrix(7.636319,0,0,-7.6363222,216.13892,65.475556)"
       style="fill:#072342;fill-opacity:1">
      <path
         d="m 0,0 c 1.421,-1.946 2.263,-4.341 2.263,-6.93 0,-6.493 -5.283,-11.775 -11.776,-11.775 -6.493,0 -11.776,5.282 -11.776,11.775 0,2.589 0.842,4.984 2.264,6.93 l -2.708,2.708 c -2.098,-2.654 -3.354,-6.001 -3.354,-9.638 0,-8.587 6.986,-15.574 15.574,-15.574 8.588,0 15.575,6.987 15.575,15.574 0,3.637 -1.257,6.984 -3.354,9.638 z"
         style="fill:#072342;fill-opacity:1;fill-rule:nonzero;stroke:none"
         id="path186" />
    </g>
    <path
       d="m 1177.1486,72.839268 c 0,1.847943 -0.3429,3.566159 -1.0395,5.162154 -0.6945,1.595983 -1.6409,2.993446 -2.8406,4.192343 -1.206,1.206563 -2.6118,2.153375 -4.2302,2.840709 -1.6195,0.694846 -3.3441,1.04616 -5.1997,1.04616 -1.8487,0 -3.5668,-0.351343 -5.1632,-1.04616 -1.5954,-0.687273 -2.9928,-1.634081 -4.192,-2.840709 -1.2067,-1.198984 -2.1533,-2.59636 -2.841,-4.192343 -0.6945,-1.595974 -1.0469,-3.31417 -1.0469,-5.162154 0,-1.84794 0.3523,-3.581443 1.0469,-5.200344 0.6876,-1.618926 1.6342,-3.023981 2.841,-4.230526 1.1993,-1.198985 2.5966,-2.145792 4.192,-2.840701 1.5964,-0.69485 3.3145,-1.03859 5.1632,-1.03859 1.8554,0 3.5802,0.34374 5.1997,1.03859 1.6185,0.694842 3.0242,1.641869 4.2302,2.840701 1.1998,1.206566 2.146,2.611624 2.8406,4.230526 0.6963,1.618922 1.0395,3.352358 1.0395,5.200344 m -2.1467,0 c 0,-1.527364 -0.29,-2.970539 -0.87,-4.337434 -0.5798,-1.359175 -1.3747,-2.550539 -2.3906,-3.56616 -1.0156,-1.015647 -2.2064,-1.817422 -3.5728,-2.390162 -1.3605,-0.580336 -2.803,-0.870609 -4.3299,-0.870609 -1.5281,0 -2.9712,0.290058 -4.3299,0.870609 -1.3601,0.572765 -2.558,1.37454 -3.5668,2.390162 -1.0241,1.015646 -1.817,2.206902 -2.3976,3.56616 -0.581,1.36696 -0.8626,2.810158 -0.8626,4.337434 0,1.519568 0.2817,2.970534 0.8626,4.329791 0.5804,1.366965 1.3734,2.550535 2.3976,3.573802 1.0089,1.015646 2.2066,1.809842 3.5668,2.390161 1.359,0.580337 2.8019,0.862824 4.3299,0.862824 1.5269,0 2.9694,-0.282455 4.3299,-0.862824 1.3665,-0.580336 2.5572,-1.374535 3.5728,-2.390161 1.0159,-1.023218 1.8108,-2.206903 2.3906,-3.573802 0.5798,-1.359166 0.87,-2.810157 0.87,-4.329791 m -8.5983,5.475251 v -3.123258 c 0,-0.595701 -0.13,-1.023213 -0.3821,-1.275178 -0.2511,-0.259519 -0.7479,-0.381841 -1.4887,-0.381841 h -2.704 v 4.78034 h -2.4952 V 66.180465 h 6.1695 c 1.1527,0 2.069,0.33593 2.7339,1.008065 0.6712,0.671898 1.0079,1.511993 1.0079,2.527636 0,0.649174 -0.1544,1.214137 -0.4507,1.70291 -0.2978,0.480983 -0.7494,0.840091 -1.3519,1.069113 0.5566,0.190507 0.9396,0.45046 1.1456,0.801775 0.2061,0.343697 0.3128,0.862822 0.3128,1.55788 v 3.46689 z m -4.5748,-10.049409 v 3.253067 h 3.1855 c 0.6496,0 1.1213,-0.14505 1.4204,-0.450456 0.3049,-0.297828 0.4576,-0.679701 0.4576,-1.137732 0,-0.511716 -0.1362,-0.916287 -0.4194,-1.214143 -0.2762,-0.297827 -0.7404,-0.45046 -1.39,-0.45046 z"
       style="fill:#43b0e8;fill-opacity:1;fill-rule:nonzero;stroke:none;stroke-width:7.63631"
       id="path190" />
  </g>
</svg>
