<?xml version="1.0" encoding="UTF-8" standalone="no"?>
<!-- Created with Inkscape (http://www.inkscape.org/) -->

<svg
   width="154.51666mm"
   height="154.51666mm"
   viewBox="0 0 154.51666 154.51666"
   version="1.1"
   id="svg4400"
   xmlns="http://www.w3.org/2000/svg"
   xmlns:svg="http://www.w3.org/2000/svg">
  <defs
     id="defs4397">
    <rect
       x="127"
       y="373"
       width="659"
       height="286"
       id="rect49193" />
    <rect
       x="-395"
       y="86"
       width="889"
       height="360"
       id="rect7719" />
    <rect
       x="127"
       y="373"
       width="659"
       height="286"
       id="rect126" />
  </defs>
  <g
     id="layer1"
     transform="translate(-21.695839,-19.314583)">
    <circle
       style="fill:#7f7f7f;fill-opacity:1;stroke-width:0.264583"
       id="path5053"
       cx="98.95417"
       cy="96.572914"
       r="77.258331" />
    <circle
       style="fill:#2f2f2f;fill-opacity:1;stroke-width:0.315148"
       id="path5393"
       cx="-98.95417"
       cy="-96.572914"
       r="70.908333"
       transform="scale(-1)" />
    <text
       xml:space="preserve"
       transform="matrix(0.26458333,0,0,0.26458333,86.333543,15.503902)"
       id="text7717"
       style="font-style:normal;font-variant:normal;font-weight:normal;font-stretch:normal;font-size:200px;line-height:1.25;font-family:Cantarell;-inkscape-font-specification:'Cantarell, @wght=800';font-variant-ligatures:normal;font-variant-caps:normal;font-variant-numeric:normal;font-variant-east-asian:normal;font-variation-settings:'wght' 800;text-align:center;white-space:pre;shape-inside:url(#rect7719);fill:#e4e4e4;fill-opacity:1;stroke:none"
       x="147.79958"
       y="0"><tspan
         x="-190.49996"
         y="265.60251"
         id="tspan227">efym</tspan></text>
    <g
       aria-label="qk"
       transform="matrix(0.26458333,0,0,0.26458333,26.617066,-6.879167)"
       id="text49191"
       style="font-size:240px;line-height:1.25;font-family:Cantarell;-inkscape-font-specification:'Cantarell, @wght=800';font-variation-settings:'wght' 800;white-space:pre;shape-inside:url(#rect49193);fill:#926625">
      <path
         d="m 184.84,590.92301 c 20.88,0 36.48,-12.72 44.4,-33.6 l -10.8,-12.96 c -3.84,7.44 -11.04,12 -20.64,12 -12.96,0 -20.64,-10.08 -20.64,-27.36 0,-16.32 7.44,-25.92 20.16,-25.92 9.84,0 17.28,5.52 21.12,14.88 l 11.76,-21.36 c -6,-18.48 -19.92,-28.08 -40.56,-28.08 -32.64,0 -54.72,24.72 -54.72,61.92 0,36.24 20.16,60.48 49.92,60.48 z m 30.48,49.68 h 39.84 v -169.68 h -27.6 l -12.24,28.8 z"
         id="path178" />
      <path
         d="m 359.08016,588.52301 h 52.8 l -44.88,-70.8 -1.92,13.68 42.96,-60.48 h -47.76 l -36.72,55.92 z m -74.16,0 h 40.8 v -177.36 h -40.8 z"
         id="path180" />
    </g>
    <text
       xml:space="preserve"
       transform="matrix(0.26458333,0,0,0.26458333,26.617066,-6.879167)"
       id="text124"
       style="font-style:normal;font-variant:normal;font-weight:normal;font-stretch:normal;font-size:240px;line-height:1.25;font-family:Cantarell;-inkscape-font-specification:'Cantarell, @wght=800';font-variant-ligatures:normal;font-variant-caps:normal;font-variant-numeric:normal;font-variant-east-asian:normal;font-variation-settings:'wght' 800;white-space:pre;shape-inside:url(#rect126);display:none;fill:#926625;fill-opacity:1" />
  </g>
</svg>
